<svg width="770" height="558" viewBox="0 0 770 558" fill="none" xmlns="http://www.w3.org/2000/svg">
<path d="M708.164 137.805H737.767V244.987H708.164V137.805Z" fill="white"/>
<path d="M319.247 76.5585H258V472.517L319.247 258.154V76.5585Z" fill="white"/>
<path d="M346.108 275.611L284.861 489.975H713.857L770 275.611H346.108Z" fill="white"/>
<path d="M472.439 76.5585C452.739 76.5585 436.712 92.5858 436.712 112.286V132.701C436.712 152.401 452.739 168.429 472.439 168.429C483.765 168.429 494.185 163.204 501.029 154.096C505.699 147.88 508.167 140.482 508.167 132.701V112.286C508.167 104.505 505.698 97.1058 501.028 90.8883C494.183 81.7819 483.763 76.5585 472.439 76.5585V76.5585Z" fill="white"/>
<path d="M411.193 244.987H533.611H533.686V215.568C533.686 205.072 529.155 195.084 521.253 188.167L515.49 183.123C503.572 193.261 488.269 199.052 472.439 199.052C456.019 199.052 440.985 193.043 429.387 183.126L423.623 188.169C415.725 195.082 411.193 205.07 411.193 215.567V244.987Z" fill="white"/>
<path d="M676.52 137.805V0H349.87V244.987H380.393H380.494H380.569V215.568C380.569 196.242 388.911 177.857 403.455 165.125L411.238 158.316C407.925 150.43 406.089 141.777 406.089 132.701V112.286C406.089 75.7001 435.854 45.9351 472.439 45.9351C493.174 45.9351 513.014 55.8642 525.511 72.4938L525.513 72.4968C534.2 84.0613 538.79 97.8204 538.79 112.286V132.701C538.79 141.63 537.035 150.287 533.655 158.327L541.422 165.123C555.968 177.858 564.31 196.243 564.31 215.568V244.987H677.541V137.805H676.52ZM645.897 153.117H589.754V122.494H645.897V153.117ZM645.897 91.8702H559.13V61.2468H645.897V91.8702Z" fill="white"/>
<path d="M264 397.107V429.107C264 429.107 264 461.107 288 461.107C312 461.107 320 461.107 320 461.107C320 461.107 328 461.107 352 461.107C376 461.107 376 429.107 376 429.107V398.067C392.16 406.627 414.96 412.467 440 429.107C488 461.107 488 549.107 488 549.107H208V493.107H192V445.107C192 429.107 224 405.107 256 397.107C258.56 396.467 260.88 395.667 263.04 394.787L264 397.107Z" fill="#28A745"/>
<path d="M276.96 174.147L264 189.107C232 197.107 232 221.107 232 221.107C232 221.107 230.96 230.787 231.2 245.187C226.96 245.507 208 248.627 208 277.107L184 189.107C184 189.107 176 141.107 224 125.107L225.04 125.027C224.4 122.707 224 120.067 224 117.107C224 93.1068 248 69.1068 288 69.1068C288 69.1068 408 61.1068 456 173.107L432 277.107C432 248.627 413.04 245.507 408.8 245.187C409.04 230.787 408 221.107 408 221.107C408 221.107 344 181.107 304 181.107C289.76 181.107 281.6 178.067 276.96 174.147V174.147Z" fill="#656D78"/>
<path d="M320 461.107C320 461.107 312 461.107 288 461.107C264 461.107 264 429.107 264 429.107V397.107L263.04 394.787C283.52 386.147 287.2 366.387 287.84 359.507C297.04 363.107 307.68 365.107 320 365.107C332.32 365.107 342.88 363.107 352.08 359.587C352.72 380.867 361.68 390.547 376 398.067V429.107C376 429.107 376 461.107 352 461.107C328 461.107 320 461.107 320 461.107V461.107Z" fill="#F0D0B4"/>
<path d="M432 277.107C432 309.107 400 309.107 400 309.107L398.24 308.467C406.4 286.467 408.56 262.467 408.8 245.187C413.04 245.507 432 248.627 432 277.107V277.107Z" fill="#F0D0B4"/>
<path d="M231.2 245.187C231.44 262.467 233.6 286.467 241.76 308.467L240 309.107C240 309.107 208 309.107 208 277.107C208 248.627 226.96 245.507 231.2 245.187V245.187Z" fill="#F0D0B4"/>
<path d="M408 221.107C408 221.107 409.04 230.787 408.8 245.187C408.56 262.467 406.4 286.467 398.24 308.467C390.16 330.387 376.08 350.227 352.08 359.587C342.88 363.107 332.32 365.107 320 365.107C307.68 365.107 297.04 363.107 287.84 359.507C263.84 350.227 249.84 330.307 241.76 308.467C233.6 286.467 231.44 262.467 231.2 245.187C230.96 230.787 232 221.107 232 221.107C232 221.107 232 197.107 264 189.107L276.96 174.147C281.6 178.067 289.76 181.107 304 181.107C344 181.107 408 221.107 408 221.107V221.107Z" fill="#F0D0B4"/>
<path d="M208 493.107V549.107H176V493.107H192H208Z" fill="#CCD1D9"/>
<path d="M80 381.107V429.107H64H48V381.107H80Z" fill="#AAB2BD"/>
<path d="M88 349.107V381.107H80H48H40V349.107H88Z" fill="#AAB2BD"/>
<path d="M8 317.107H152V325.107C152 335.667 138.56 349.107 128 349.107H88H40H32C21.44 349.107 8 335.667 8 325.107V317.107Z" fill="#CCD1D9"/>
<path d="M152 317.107H8V141.107H152V317.107Z" fill="#E6E9ED"/>
<path d="M40 173.107H120V205.107H40V173.107Z" fill="#FF826E"/>
<path d="M88 229.099H72V253.099H48V269.099H72V293.099H88V269.099H112V253.099H88V229.099Z" fill="black"/>
<path d="M128 165.099H32V213.099H128V165.099ZM112 197.099H48V181.099H112V197.099Z" fill="black"/>
<path d="M444.44 422.443C427.608 411.227 411.464 404.619 398.496 399.307C375.48 389.899 362.8 384.643 360.44 364.523C369.976 359.987 378.48 353.747 385.76 345.603C393.352 337.123 399.096 327.275 403.496 316.915C417.608 315.635 439.32 306.467 439.944 278.283L464.392 172.339L463.36 169.939C413.696 54.0748 288.728 61.0348 288 61.0988C242.928 61.0988 216 89.5708 216 117.099C216 117.979 216.2 118.699 216.256 119.539C178.024 135.275 173.088 172.283 176.112 190.411L200.072 278.427C200.76 306.515 222.44 315.651 236.528 316.923C240.928 327.275 246.656 337.131 254.24 345.603C261.384 353.587 269.704 359.739 279.016 364.259C277.088 372.379 271.336 385.019 254.056 389.339C231.784 394.907 207.784 408.339 194.448 423.203C189.76 417.691 181.648 413.099 167.992 413.099C142.68 413.099 135.992 428.795 135.992 437.099V517.099C135.992 518.075 135.624 541.099 103.992 541.099C73.32 541.099 72.04 519.491 71.992 517.099V437.099H87.992V389.099H95.992V357.099H127.992C142.944 357.099 159.992 340.051 159.992 325.099V133.099H0V325.099C0 340.051 17.048 357.099 32 357.099V389.099H40V437.099H56V517.099C56 530.931 66.032 557.099 104 557.099C141.968 557.099 152 530.931 152 517.099L151.992 437.323C152.088 435.955 153.272 429.099 168 429.099C182.728 429.099 183.912 435.955 184 437.099V485.099H168V557.099H208H216H496V549.099C496 545.331 495.416 456.427 444.44 422.443V422.443ZM144 149.099V309.099H16V149.099H144ZM16 325.099H144C144 331.235 134.136 341.099 128 341.099H96H32C25.864 341.099 16 331.227 16 325.099ZM80 357.099V373.099H48V357.099H80ZM72 389.099V421.099H56V389.099H72ZM409.616 299.331C413.8 284.363 415.712 269.339 416.464 256.403C420.304 259.483 424 265.467 424 277.099C424 291.027 416.384 296.875 409.616 299.331ZM216 277.099C216 265.411 219.664 259.435 223.536 256.355C224.288 269.299 226.152 284.323 230.336 299.307C223.576 296.843 216 290.987 216 277.099ZM266.192 334.963C232.144 296.971 239.864 222.723 240 221.211C240.056 219.371 241.216 203.043 265.936 196.867L262.064 181.347C226.848 190.155 224.216 216.227 224.016 220.539C223.84 222.235 223.224 228.995 223.112 238.659C218.144 240.315 212.856 243.491 208.576 248.803L191.832 187.427C191.24 183.315 187.536 149.523 221.024 134.867C227.552 144.939 239.184 149.099 248 149.099V133.099C245.328 133.099 232 132.331 232 117.099C232 97.4348 252.944 77.0988 288.52 77.0828C293.184 76.7788 401.872 71.0668 447.608 173.875L430.568 247.699C426.448 243.011 421.52 240.195 416.888 238.651C416.76 228.211 416.056 221.155 415.952 220.211L415.52 216.363L412.24 214.307C409.544 212.627 345.808 173.091 304 173.091C288.072 173.091 282.656 169.043 280.84 166.627C278.496 163.499 279.584 159.651 279.632 159.491L272 157.099L264.416 154.571C264.024 155.739 260.824 166.227 267.784 175.875C274.104 184.651 286.288 189.099 304 189.099C336.2 189.099 386.872 217.827 400.368 225.835C401.456 241.603 403.44 301.851 373.84 334.931C360.672 349.635 342.568 357.099 320.008 357.099C297.456 357.099 279.352 349.651 266.192 334.963V334.963ZM320 373.099C328.936 373.099 337.264 372.003 345.072 370.035C347.968 386.323 356.576 395.691 368 402.643V429.075C367.992 430.051 367.672 453.099 352 453.099H328V429.099H312V453.099H288C272.328 453.099 272.008 430.051 272 429.099V399.131C284.64 391.643 291.168 379.963 294.064 369.827C302.112 371.947 310.728 373.099 320 373.099ZM200 541.099H184V501.099H200V541.099ZM216 541.099V485.099H200V445.099C200 435.371 225.44 413.683 256 405.403V429.099C256 442.931 262.688 469.099 288 469.099H320H328H352C377.312 469.099 384 442.931 384 429.099V410.619C386.752 411.795 389.568 412.955 392.432 414.123C405.384 419.419 420.072 425.427 435.568 435.755C471.328 459.595 478.32 519.411 479.68 541.099H216Z" fill="black"/>
<path d="M356.8 315.507L347.208 302.707C320.544 322.699 293.912 303.515 292.776 302.691L283.2 315.507C290.696 321.123 304.776 327.691 321.032 327.691C332.4 327.691 344.832 324.483 356.8 315.507V315.507Z" fill="black"/>
<path d="M299.56 238.443C281.896 250.219 270.776 240.515 269.584 239.371L258.344 250.755C262.64 255.059 271.48 260.171 282.912 260.171C290.464 260.171 299.168 257.939 308.432 251.755L299.56 238.443Z" fill="black"/>
<path d="M380.44 251.755L371.568 238.443C353.904 250.219 342.784 240.515 341.592 239.371L330.352 250.755C334.648 255.059 343.488 260.171 354.92 260.171C362.472 260.171 371.168 257.939 380.44 251.755V251.755Z" fill="black"/>
<path d="M417.504 193.763L430.512 184.451C428.784 182.027 387.344 125.099 320 125.099V141.099C378.976 141.099 417.12 193.235 417.504 193.763Z" fill="black"/>
<path d="M228.424 157.947C227.648 158.331 209.36 167.739 200.416 194.571L215.584 199.635C222.328 179.411 235.104 172.507 235.648 172.227L232 165.099L228.424 157.947Z" fill="black"/>
</svg>
