<svg id="Capa_1" enable-background="new 0 0 512.006 512.006" height="512" viewBox="0 0 512.006 512.006" width="512" xmlns="http://www.w3.org/2000/svg"><g><path d="m435.043 173.183c-115.713-19.896-236.721-20.866-358.08 0l9.32-65c3.86-26.91 27.26-47.2 54.45-47.2h230.61c27.21 0 50.62 20.32 54.45 47.25z" fill="#b0f2ff"/><path d="m435.043 173.183c-58.53-10.07-118.43-15.29-179.04-15.29v-96.91h115.34c27.21 0 50.62 20.32 54.45 47.25l8.51 59.74z" fill="#84eef9"/><path d="m500.459 181.427c-160.615-38.028-328.219-38.046-488.912 0-8.095 1.918-13.086 10.063-11.118 18.145l58.426 239.995c1.951 8.013 10.003 12.944 18.03 11.049 198.797-47.068 351.982.406 361.705.406 6.761 0 12.894-4.602 14.562-11.455l58.426-239.995c1.967-8.084-3.025-16.228-11.119-18.145z" fill="#e6faff"/><path d="m511.573 199.573-58.42 239.99c-1.67 6.86-7.8 11.46-14.56 11.46-6.5 0-77.11-21.22-182.59-21.22v-276.9c59.66 0 119.32 5.03 178.3 15.07 22.16 3.78 44.23 8.26 66.16 13.45 8.09 1.92 13.08 10.07 11.11 18.15z" fill="#ccf8ff"/><path d="m315.953 256.006h-25v-25c0-8.284-6.716-15-15-15h-39.9c-8.284 0-15 6.716-15 15v25h-25c-8.284 0-15 6.716-15 15v39.9c0 8.284 6.716 15 15 15h25v25.1c0 8.284 6.716 15 15 15h39.9c8.284 0 15-6.716 15-15v-25.1h25c8.284 0 15-6.716 15-15v-39.9c0-8.284-6.716-15-15-15z" fill="#f4425c"/><path d="m330.953 271.003v39.9c0 8.29-6.72 15-15 15h-25v25.1c0 8.29-6.72 15-15 15h-19.95v-150h19.95c8.28 0 15 6.72 15 15v25h25c8.28 0 15 6.72 15 15z" fill="#dd124c"/></g></svg>