<svg width="820" height="538" viewBox="0 0 820 538" fill="none" xmlns="http://www.w3.org/2000/svg">
<path d="M780.366 241.208V135.68H720.064V0H368.302V75.3776H308V482.417H756.826L819.999 241.208H780.366ZM750.215 165.831V241.208H720.064V165.831H750.215ZM689.913 30.1511V241.208H579.359V212.247C579.359 197.563 573.021 183.595 561.97 173.925L545.243 159.289C550.902 151.158 554.233 141.291 554.233 130.655V110.554C554.233 82.845 531.69 60.3021 503.981 60.3021C476.272 60.3021 453.729 82.845 453.729 110.554V130.655C453.729 141.291 457.06 151.158 462.72 159.289L445.993 173.925C434.943 183.595 428.604 197.563 428.604 212.247V241.208H398.453V30.1511H689.913ZM524.083 130.655C524.083 141.738 515.065 150.755 503.982 150.755C492.898 150.755 483.881 141.738 483.881 130.655V110.554C483.881 99.4703 492.898 90.4532 503.982 90.4532C515.065 90.4532 524.083 99.4703 524.083 110.554V130.655ZM465.849 196.617L487.134 177.992C492.405 179.873 498.074 180.906 503.982 180.906C509.889 180.906 515.56 179.873 520.83 177.992L542.117 196.617C546.623 200.561 549.209 206.258 549.209 212.247V241.208H458.756V212.247C458.755 206.258 461.34 200.561 465.849 196.617ZM338.151 105.529H368.302V254.172L338.151 359.701V105.529ZM733.555 452.266H343.062L394.75 271.359H780.935L733.555 452.266Z" fill="black" fill-opacity="0.72"/>
<path d="M584.385 60.3021H669.813V90.4532H584.385V60.3021Z" fill="black" fill-opacity="0.72"/>
<path d="M614.536 120.604H669.813V150.755H614.536V120.604Z" fill="black" fill-opacity="0.72"/>
<path d="M264 377.107V409.107C264 409.107 264 441.107 288 441.107C312 441.107 320 441.107 320 441.107C320 441.107 328 441.107 352 441.107C376 441.107 376 409.107 376 409.107V378.067C392.16 386.627 414.96 392.467 440 409.107C488 441.107 488 529.107 488 529.107H208V473.107H192V425.107C192 409.107 224 385.107 256 377.107C258.56 376.467 260.88 375.667 263.04 374.787L264 377.107Z" fill="#28A745"/>
<path d="M276.96 154.147L264 169.107C232 177.107 232 201.107 232 201.107C232 201.107 230.96 210.787 231.2 225.187C226.96 225.507 208 228.627 208 257.107L184 169.107C184 169.107 176 121.107 224 105.107L225.04 105.027C224.4 102.707 224 100.067 224 97.1068C224 73.1068 248 49.1068 288 49.1068C288 49.1068 408 41.1068 456 153.107L432 257.107C432 228.627 413.04 225.507 408.8 225.187C409.04 210.787 408 201.107 408 201.107C408 201.107 344 161.107 304 161.107C289.76 161.107 281.6 158.067 276.96 154.147V154.147Z" fill="#656D78"/>
<path d="M320 441.107C320 441.107 312 441.107 288 441.107C264 441.107 264 409.107 264 409.107V377.107L263.04 374.787C283.52 366.147 287.2 346.387 287.84 339.507C297.04 343.107 307.68 345.107 320 345.107C332.32 345.107 342.88 343.107 352.08 339.587C352.72 360.867 361.68 370.547 376 378.067V409.107C376 409.107 376 441.107 352 441.107C328 441.107 320 441.107 320 441.107V441.107Z" fill="#F0D0B4"/>
<path d="M432 257.107C432 289.107 400 289.107 400 289.107L398.24 288.467C406.4 266.467 408.56 242.467 408.8 225.187C413.04 225.507 432 228.627 432 257.107V257.107Z" fill="#F0D0B4"/>
<path d="M231.2 225.187C231.44 242.467 233.6 266.467 241.76 288.467L240 289.107C240 289.107 208 289.107 208 257.107C208 228.627 226.96 225.507 231.2 225.187V225.187Z" fill="#F0D0B4"/>
<path d="M408 201.107C408 201.107 409.04 210.787 408.8 225.187C408.56 242.467 406.4 266.467 398.24 288.467C390.16 310.387 376.08 330.227 352.08 339.587C342.88 343.107 332.32 345.107 320 345.107C307.68 345.107 297.04 343.107 287.84 339.507C263.84 330.227 249.84 310.307 241.76 288.467C233.6 266.467 231.44 242.467 231.2 225.187C230.96 210.787 232 201.107 232 201.107C232 201.107 232 177.107 264 169.107L276.96 154.147C281.6 158.067 289.76 161.107 304 161.107C344 161.107 408 201.107 408 201.107V201.107Z" fill="#F0D0B4"/>
<path d="M208 473.107V529.107H176V473.107H192H208Z" fill="#CCD1D9"/>
<path d="M80 361.107V409.107H64H48V361.107H80Z" fill="#AAB2BD"/>
<path d="M88 329.107V361.107H80H48H40V329.107H88Z" fill="#AAB2BD"/>
<path d="M8 297.107H152V305.107C152 315.667 138.56 329.107 128 329.107H88H40H32C21.44 329.107 8 315.667 8 305.107V297.107Z" fill="#CCD1D9"/>
<path d="M152 297.107H8V121.107H152V297.107Z" fill="#E6E9ED"/>
<path d="M40 153.107H120V185.107H40V153.107Z" fill="#FF826E"/>
<path d="M88 209.099H72V233.099H48V249.099H72V273.099H88V249.099H112V233.099H88V209.099Z" fill="black"/>
<path d="M128 145.099H32V193.099H128V145.099ZM112 177.099H48V161.099H112V177.099Z" fill="black"/>
<path d="M444.44 402.443C427.608 391.227 411.464 384.619 398.496 379.307C375.48 369.899 362.8 364.643 360.44 344.523C369.976 339.987 378.48 333.747 385.76 325.603C393.352 317.123 399.096 307.275 403.496 296.915C417.608 295.635 439.32 286.467 439.944 258.283L464.392 152.339L463.36 149.939C413.696 34.0748 288.728 41.0348 288 41.0988C242.928 41.0988 216 69.5708 216 97.0988C216 97.9788 216.2 98.6988 216.256 99.5388C178.024 115.275 173.088 152.283 176.112 170.411L200.072 258.427C200.76 286.515 222.44 295.651 236.528 296.923C240.928 307.275 246.656 317.131 254.24 325.603C261.384 333.587 269.704 339.739 279.016 344.259C277.088 352.379 271.336 365.019 254.056 369.339C231.784 374.907 207.784 388.339 194.448 403.203C189.76 397.691 181.648 393.099 167.992 393.099C142.68 393.099 135.992 408.795 135.992 417.099V497.099C135.992 498.075 135.624 521.099 103.992 521.099C73.32 521.099 72.04 499.491 71.992 497.099V417.099H87.992V369.099H95.992V337.099H127.992C142.944 337.099 159.992 320.051 159.992 305.099V113.099H0V305.099C0 320.051 17.048 337.099 32 337.099V369.099H40V417.099H56V497.099C56 510.931 66.032 537.099 104 537.099C141.968 537.099 152 510.931 152 497.099L151.992 417.323C152.088 415.955 153.272 409.099 168 409.099C182.728 409.099 183.912 415.955 184 417.099V465.099H168V537.099H208H216H496V529.099C496 525.331 495.416 436.427 444.44 402.443V402.443ZM144 129.099V289.099H16V129.099H144ZM16 305.099H144C144 311.235 134.136 321.099 128 321.099H96H32C25.864 321.099 16 311.227 16 305.099ZM80 337.099V353.099H48V337.099H80ZM72 369.099V401.099H56V369.099H72ZM409.616 279.331C413.8 264.363 415.712 249.339 416.464 236.403C420.304 239.483 424 245.467 424 257.099C424 271.027 416.384 276.875 409.616 279.331ZM216 257.099C216 245.411 219.664 239.435 223.536 236.355C224.288 249.299 226.152 264.323 230.336 279.307C223.576 276.843 216 270.987 216 257.099ZM266.192 314.963C232.144 276.971 239.864 202.723 240 201.211C240.056 199.371 241.216 183.043 265.936 176.867L262.064 161.347C226.848 170.155 224.216 196.227 224.016 200.539C223.84 202.235 223.224 208.995 223.112 218.659C218.144 220.315 212.856 223.491 208.576 228.803L191.832 167.427C191.24 163.315 187.536 129.523 221.024 114.867C227.552 124.939 239.184 129.099 248 129.099V113.099C245.328 113.099 232 112.331 232 97.0988C232 77.4348 252.944 57.0988 288.52 57.0828C293.184 56.7788 401.872 51.0668 447.608 153.875L430.568 227.699C426.448 223.011 421.52 220.195 416.888 218.651C416.76 208.211 416.056 201.155 415.952 200.211L415.52 196.363L412.24 194.307C409.544 192.627 345.808 153.091 304 153.091C288.072 153.091 282.656 149.043 280.84 146.627C278.496 143.499 279.584 139.651 279.632 139.491L272 137.099L264.416 134.571C264.024 135.739 260.824 146.227 267.784 155.875C274.104 164.651 286.288 169.099 304 169.099C336.2 169.099 386.872 197.827 400.368 205.835C401.456 221.603 403.44 281.851 373.84 314.931C360.672 329.635 342.568 337.099 320.008 337.099C297.456 337.099 279.352 329.651 266.192 314.963V314.963ZM320 353.099C328.936 353.099 337.264 352.003 345.072 350.035C347.968 366.323 356.576 375.691 368 382.643V409.075C367.992 410.051 367.672 433.099 352 433.099H328V409.099H312V433.099H288C272.328 433.099 272.008 410.051 272 409.099V379.131C284.64 371.643 291.168 359.963 294.064 349.827C302.112 351.947 310.728 353.099 320 353.099ZM200 521.099H184V481.099H200V521.099ZM216 521.099V465.099H200V425.099C200 415.371 225.44 393.683 256 385.403V409.099C256 422.931 262.688 449.099 288 449.099H320H328H352C377.312 449.099 384 422.931 384 409.099V390.619C386.752 391.795 389.568 392.955 392.432 394.123C405.384 399.419 420.072 405.427 435.568 415.755C471.328 439.595 478.32 499.411 479.68 521.099H216Z" fill="black"/>
<path d="M356.8 295.507L347.208 282.707C320.544 302.699 293.912 283.515 292.776 282.691L283.2 295.507C290.696 301.123 304.776 307.691 321.032 307.691C332.4 307.691 344.832 304.483 356.8 295.507V295.507Z" fill="black"/>
<path d="M299.56 218.443C281.896 230.219 270.776 220.515 269.584 219.371L258.344 230.755C262.64 235.059 271.48 240.171 282.912 240.171C290.464 240.171 299.168 237.939 308.432 231.755L299.56 218.443Z" fill="black"/>
<path d="M380.44 231.755L371.568 218.443C353.904 230.219 342.784 220.515 341.592 219.371L330.352 230.755C334.648 235.059 343.488 240.171 354.92 240.171C362.472 240.171 371.168 237.939 380.44 231.755V231.755Z" fill="black"/>
<path d="M417.504 173.763L430.512 164.451C428.784 162.027 387.344 105.099 320 105.099V121.099C378.976 121.099 417.12 173.235 417.504 173.763Z" fill="black"/>
<path d="M228.424 137.947C227.648 138.331 209.36 147.739 200.416 174.571L215.584 179.635C222.328 159.411 235.104 152.507 235.648 152.227L232 145.099L228.424 137.947Z" fill="black"/>
</svg>
